<svg
  width="270"
  height="270"
  viewBox="0 0 270 270"
  fill="none"
  xmlns="http://www.w3.org/2000/svg"
>
  <g transform="translate(-57, -13)">
    <title>tops - wave</title>
    <path fill="#000000" fill-opacity="0.2" d="M61 156c13,-4 18,-9 36,-29 2,-3 4,-6 5,-9 24,24 56,38 88,45l-6 -10c2,1 22,10 26,10 0,-14 -11,2 -11,-15 0,-38 -31,-69 -69,-69l0 0c-44,0 -69,35 -69,77z"/>
    <path class="tinted" fill="#bb7748" d="M30 176l0 0c0,1 -1,3 -1,4l3 -3c17,7 84,-59 77,-72 10,16 55,44 80,49 -4,-7 -9,-10 -13,-17 16,11 53,33 72,38 -8,-32 -25,-73 -44,-95 -20,-22 -60,-22 -65,-22 -5,0 -45,-1 -65,22 -18,20 -34,61 -43,93 -1,1 -1,2 -1,3z"/>
  </g>
</svg>
