<svg
  width="77"
  height="64"
  viewBox="0 0 77 64"
  fill="none"
  xmlns="http://www.w3.org/2000/svg"
>
  <g transform="translate(90, 160)">
    <title>mouth - frown</title>
    <path fill="#000000" d="M50 33l0 0c13,0 24,11 24,25l0 2 -48 0 0 -2c0,-14 11,-25 24,-25z"/>
      <path fill="#FEFEFE" d="M50 33l0 0c6,0 12,3 17,7l-34 0c5,-4 11,-7 17,-7z"/>
      <path fill="#88C553" d="M35 51l30 0c4,0 8,4 8,8l0 6c0,4 -4,7 -8,7 -4,0 -7,-3 -7,-7 0,-3 -4,-5 -8,-5 -4,0 -7,4 -7,8 0,5 -4,8 -8,8 -4,0 -7,-3 -7,-8l0 -9c0,-4 3,-8 7,-8z"/>
  </g>
</svg>