<svg
  width="67"
  height="64"
  viewBox="0 0 67 64"
  fill="none"
  xmlns="http://www.w3.org/2000/svg"
>
  <g transform="translate(87, 163)">
    <title>mouth - smile</title>
    <path fill="#000000" d="M50 36l0 0c14,0 24,11 24,24 0,4 0,8 0,11 -8,-1 -16,-2 -24,-2 -8,0 -16,1 -24,2l0 -11c0,-13 10,-24 24,-24z"/>
    <path fill="#e8e8e8" d="M50 37l0 0c7,0 13,2 17,7l-34 0c4,-5 10,-7 17,-7z"/>
    <path fill="#FF4F6D" d="M50 62c-2,-2 -4,-2 -6,-2 -3,0 -8,1 -9,4 -2,2 -3,3 -5,7 7,-1 13,-2 20,-2l0 0 0 0c7,0 13,1 20,2 -2,-4 -3,-5 -5,-7 -1,-3 -6,-4 -9,-4 -2,0 -4,0 -6,2z"/>
  </g>
</svg>