<svg
  width="64"
  height="64"
  viewBox="0 0 64 64"
  fill="none"
  xmlns="http://www.w3.org/2000/svg"
>
  <g transform="translate(86, 145)">
    <title>mouth - surprised</title>
    <circle fill="#E08C65" fill-opacity="0.6" cx="15" cy="59" r="11"/>
    <circle fill="#E08C65" fill-opacity="0.6" cx="85" cy="59" r="11"/>
    <path fill="#000000" d="M38 61c9,3 18,3 26,0 0,-6 5,-12 12,-13 -5,3 -8,7 -8,12 0,8 7,14 14,14 1,0 1,0 1,0 -2,1 -3,1 -5,1 -7,0 -12,-4 -14,-9 -9,3 -18,3 -27,0 -2,5 -7,8 -13,8 -2,0 -3,0 -5,-1 0,0 0,0 1,0 7,0 14,-6 14,-14 0,-5 -3,-10 -8,-12 7,1 12,7 12,14 0,0 0,0 0,0z"/>
  </g>
</svg>