<svg
  width="281"
  height="93"
  viewBox="0 0 281 93"
  fill="none"
  xmlns="http://www.w3.org/2000/svg"
>
  <g transform="translate(0, 75)">
    <title>clothes - crew</title>
  <path class="tinted" fill="#545454" d="M264 280l0 -15c0,-44 -34,-81 -78,-85l-15 0 0 11c0,3 -1,6 -3,7l0 0c-5,11 -15,19 -28,19 -12,0 -23,-8 -27,-18l-1 -1c-2,-1 -2,-4 -2,-7l0 -11 -16 0c-44,4 -78,41 -78,85l0 15 248 0z"/>
      <path fill="#ffffff" d="M110 191l0 -18c-4,0 -14,9 -14,23 0,10 7,18 16,23 1,-4 7,-7 10,-7 4,0 4,1 5,1l-15 -15c-2,-1 -2,-4 -2,-7z"/>
      <path fill="#ffffff" d="M171 191l0 -18c4,0 13,9 13,23 0,10 -6,18 -16,23 -1,-4 -7,-7 -10,-7 -3,0 -3,1 -5,1l15 -15c2,-1 3,-4 3,-7z"/>
  </g>
</svg>
