<svg
  width="48"
  height="48"
  viewBox="0 0 48 48"
  fill="none"
  xmlns="http://www.w3.org/2000/svg"
>
  <g transform="translate(35, 120)">
    <title>ear - attached</title>
    <path fill="#b9b9b9" d="M31 54c1,-2 2,-3 4,-3l4 0c2,0 3,1 3,3l0 10c0,2 -1,4 -3,4l-4 0c-2,0 -3,-2 -4,-4l0 7c0,0 0,1 -1,1l0 0c0,15 10,28 25,46 4,4 7,8 11,13 5,6 10,10 14,13 7,6 13,10 17,22 1,4 1,8 1,14 0,6 -1,13 1,20 2,11 3,25 3,39 0,7 1,15 1,21l0 1 -2 0 0 -1c-1,-6 -1,-14 -1,-21 -1,-14 -1,-28 -3,-38 -2,-7 -2,-15 -1,-21 0,-5 0,-10 -1,-13 -4,-11 -10,-16 -16,-21 -5,-3 -10,-7 -15,-13 -3,-5 -7,-9 -10,-13 -16,-19 -27,-32 -27,-48l0 0c0,0 -1,-1 -1,-1 0,-5 0,-9 0,-14 0,-2 3,-3 5,-3z"/>
    <path fill="#b9b9b9" d="M189 54c-1,-2 -2,-3 -4,-3l-4 0c-2,0 -3,1 -3,3l0 10c0,2 1,4 3,4l4 0c2,0 3,-2 4,-4l0 7c0,0 0,1 1,1l0 0c0,10 -10,18 -22,27 -9,7 -20,15 -29,26 -4,6 -11,10 -19,15 -13,8 -26,17 -25,29l1 2 2 -1 0 -1c-1,-11 11,-19 23,-27 8,-5 15,-9 20,-15 9,-11 19,-19 29,-26 12,-10 23,-17 23,-29l0 0c0,0 1,-1 1,-1 0,-5 0,-9 0,-14 0,-2 -3,-3 -5,-3z"/>
  </g>
</svg>