<svg
  width="160"
  height="74"
  viewBox="0 0 160 74"
  fill="none"
  xmlns="http://www.w3.org/2000/svg"
>
  <g transform="translate(0, 0) scale(0.8,0.8)">
    <title>glasses - square</title>
    <path fill="#E31E24" d="M90 100c5,0 13,-1 18,-3l0 0c8,-5 26,-11 34,-13 6,-1 21,-6 25,-1 0,1 1,2 1,3 3,8 -9,25 -12,31 -5,8 -13,13 -21,16 -8,2 -17,1 -24,-2 -6,-2 -12,-7 -14,-13l0 0c-1,-5 -5,-8 -7,-8l0 -10zm31 -5c-14,6 -20,8 -20,19 0,11 17,19 32,15 16,-5 25,-21 21,-32 -2,-8 -17,-7 -33,-2z"/>
    <path fill="#E31E24" d="M90 100c-5,0 -13,-1 -18,-3l0 0c-8,-5 -26,-11 -34,-13 -6,-1 -21,-6 -25,-1 0,1 -1,2 -1,3 -3,8 9,25 12,31 5,8 13,13 21,16 8,2 17,1 24,-2 6,-2 12,-7 14,-13l0 0c1,-5 5,-8 7,-8l0 -6 0 -4zm-31 -5c14,6 20,8 20,19 0,11 -17,19 -32,15 -16,-5 -25,-21 -21,-32 2,-8 17,-7 33,-2z"/>
    <path class="glass" fill-opacity="0.5" fill="#5B5B5B" d="M60 95c14,6 20,8 20,19 0,11 -17,19 -32,15 -16,-5 -25,-21 -21,-32 2,-8 17,-7 33,-2zm62 0c-14,6 -20,8 -20,19 0,11 17,19 32,15 16,-5 25,-21 21,-32 -2,-8 -17,-7 -33,-2z"/>
  </g>
</svg>