<svg
  width="48"
  height="50"
  viewBox="0 0 48 50"
  fill="none"
  xmlns="http://www.w3.org/2000/svg"
>
  <g transform="translate(25, 65)">
    <title>earrings - stud</title>
   <path fill="#2B2A29" fill-rule="nonzero" d="M33 103c0,-1 0,-3 1,-4 2,-1 4,0 4,1 1,1 1,2 2,3 0,1 0,2 0,3 0,3 -1,6 -3,8l0 0c-2,2 -5,3 -8,3 -3,0 -6,-1 -8,-3 -2,-2 -3,-5 -3,-8 0,-3 1,-6 3,-8 1,-2 4,-3 7,-3l0 0 0 1c0,2 0,3 1,4 0,0 0,0 -1,0 -1,1 -2,1 -3,2 -1,1 -2,2 -2,4 0,1 1,3 2,3 1,1 2,2 4,2 1,0 3,-1 3,-2l0 0c1,0 2,-2 2,-3 0,-1 0,-1 0,-2 0,0 0,0 -1,-1z"/>
   <path fill="#2B2A29" fill-rule="nonzero" d="M191 100c0,0 0,0 0,0 0,-1 0,-2 0,-4l0 -1c3,0 6,1 8,3 2,2 3,5 3,8 0,3 -1,6 -3,8l0 0c-2,2 -5,3 -8,3 -3,0 -6,-1 -8,-3 -2,-2 -3,-5 -3,-8 0,-1 0,-2 0,-3 1,-1 1,-2 2,-3 0,-1 2,-2 4,-1 1,1 1,3 1,4 -1,1 -1,1 -1,1 0,1 0,1 0,2 0,1 1,3 2,3 1,1 2,2 3,2 2,0 3,-1 4,-2l0 0c1,0 2,-2 2,-3 0,-2 -1,-3 -2,-4 -1,-1 -2,-2 -4,-2z"/>
  </g>
</svg>
