<svg
  width="281"
  height="93"
  viewBox="0 0 281 93"
  fill="none"
  xmlns="http://www.w3.org/2000/svg"
>
  <g transform="translate(0, 0) scale (0.9, 0.9)">
    <title>clothes - collared</title>
    <path class="tinted" fill="#545454" d="M264 280l0 -13c0,-45 -34,-83 -79,-87l-1 -1c-2,0 -4,0 -6,0 1,0 1,1 1,1l-1 0 1 0c0,2 0,3 0,5l-3 2c-24,23 -48,23 -72,0l-3 -2c0,-2 0,-4 1,-6 -2,0 -4,0 -6,0l-1 1c-45,4 -79,42 -79,87l0 13 74 0 19 0 62 0 19 0 74 0z"/>
      <path fill="#000000" fill-opacity="0.5" d="M90 280l-20 -45c3,-4 5,-7 7,-10 -2,-3 -4,-7 -7,-10l26 -36c2,0 4,0 6,0 -5,35 0,74 7,101l-19 0z"/>
      <path fill="#000000" fill-opacity="0.5" d="M190 280l20 -45c-3,-4 -5,-7 -7,-10 2,-3 4,-7 7,-10l-26 -36c-2,0 -4,0 -6,0 5,35 0,74 -7,101l19 0z"/>
      <path fill="#ffffff" d="M204 250c10,-10 12,-13 23,-2 -8,1 -15,2 -23,2z"/>
      <path fill="#000000" fill-opacity="0.7" d="M180 191c-27,24 -54,23 -80,-1 0,-1 1,-3 1,-5l3 2c24,23 48,23 72,0l3 -2c0,2 1,4 1,6z"/>
      <path fill="#000000" fill-opacity="0.3" d="M109 280l62 0c6,-24 11,-57 9,-89 -2,1 -4,3 -6,5 -4,2 -7,5 -11,7 -21,11 -42,6 -63,-12 -2,32 3,65 9,89z"/>
  </g>
</svg>
