<svg
  width="80"
  height="64"
  viewBox="0 0 80 64"
  fill="none"
  xmlns="http://www.w3.org/2000/svg"
>
  <g transform="translate(0, 0) scale(0.8,0.8)">
    <title>mouth - nervous</title>
    <path fill="#000000" d="M50 70l0 0c17,0 31,-10 31,-23l0 -1 -62 0 0 1c0,13 14,23 31,23z"/>
      <path fill="#FEFEFE" d="M69 46l-38 0 0 2c0,3 2,5 4,5l30 0c2,0 4,-2 4,-5l0 -2z"/>
      <path fill="#FF4F6D" d="M64 70l0 0c0,8 -6,15 -14,15l0 0c-8,0 -14,-7 -14,-15l0 0 0 -7c0,-4 4,-8 8,-8 3,0 5,1 6,2 1,-1 3,-2 6,-2 4,0 8,4 8,8l0 7z"/>
  </g>
</svg>