<svg
  width="64"
  height="64"
  viewBox="0 0 64 64"
  fill="none"
  xmlns="http://www.w3.org/2000/svg"
>
  <g transform="translate(0, 0) scale(0.8,0.8)">
    <title>mouth - pucker</title>
    <path fill="#000000" d="M50 70l0 0c13,0 24,-10 24,-23l0 -1 -48 0 0 1c0,13 11,23 24,23z"/>
    <path fill="#FF4F6D" d="M50 70l0 0c6,0 11,-2 16,-5 -2,-3 -5,-5 -9,-5 -3,0 -5,1 -7,2 -2,-1 -4,-2 -7,-2 -4,0 -7,2 -9,5 5,3 10,5 16,5z"/>
    <path fill="#FEFEFE" d="M69 46l-38 0 0 2c0,3 2,5 4,5l30 0c2,0 4,-2 4,-5l0 -2z"/>
    />
  </g>
</svg>