<svg
  width="64"
  height="64"
  viewBox="0 0 64 64"
  fill="none"
  xmlns="http://www.w3.org/2000/svg"
>
  <g transform="translate(0, 0) scale(0.5,0.5)">
    <title>mouth - smirk</title>
    <path fill="#FEFEFE" fill-rule="nonzero" d="M84 62l-48 0c-3,0 -7,1 -9,4 -3,2 -4,5 -4,9 0,4 1,7 4,9 2,3 6,4 9,4l48 0c3,0 7,-1 9,-4 3,-2 4,-5 4,-9 0,-4 -1,-7 -4,-9 -2,-3 -6,-4 -9,-4z"/>
    <path fill="#B2B3B3" d="M23 64l11 0 0 -12c1,0 2,0 2,0l2 0 0 12 12 0 0 -12 4 0 0 12 12 0 0 -12 4 0 0 12 12 0 0 -12 2 0c0,0 1,0 2,0l0 12 11 0c0,0 0,1 0,1 0,1 0,1 0,2l-11 0 0 11c-1,0 -2,0 -2,0l-2 0 0 -11 -12 0 0 11 -4 0 0 -11 -12 0 0 11 -4 0 0 -11 -12 0 0 11 -2 0c0,0 -1,0 -2,0l0 -11 -11 0c0,-1 0,-1 0,-2 0,0 0,-1 0,-1z"/>
    <path fill="#000000" fill-rule="nonzero" d="M36 48l48 0c4,0 9,2 12,5 3,3 5,8 5,12 0,5 -2,9 -5,12 -3,3 -8,5 -12,5l-48 0c-4,0 -9,-2 -12,-5 -3,-3 -5,-7 -5,-12 0,-4 2,-9 5,-12 3,-3 8,-5 12,-5zm48 4l-48 0c-3,0 -7,1 -9,4 -3,2 -4,5 -4,9 0,4 1,7 4,9 2,3 6,4 9,4l48 0c3,0 7,-1 9,-4 3,-2 4,-5 4,-9 0,-4 -1,-7 -4,-9 -2,-3 -6,-4 -9,-4z"/>
  </g>
</svg>