<svg
  width="164"
  height="154"
  viewBox="0 0 164 154"
  fill="none"
  xmlns="http://www.w3.org/2000/svg"
>
  <g transform="translate(-10, 0)">
    <title>beard - scruff</title>
    <path class="tinted" fill="#6f2912" d="M30 30c1,11 -1,61 16,60 9,0 20,-15 29,-16 13,-1 20,0 24,5 4,-5 11,-6 24,-5 9,1 20,16 29,16 17,1 15,-49 16,-60 2,13 5,25 5,38 1,11 -2,22 -4,34 -1,11 0,24 -4,35 -2,7 -9,12 -13,18 -3,3 -5,8 -8,10 -5,3 -11,3 -16,6 -18,7 -10,8 -29,8 -19,0 -11,-1 -29,-8 -5,-3 -11,-3 -16,-6 -3,-2 -5,-7 -8,-10 -4,-6 -11,-11 -13,-18 -4,-11 -3,-24 -4,-35 -2,-12 -5,-23 -4,-34 0,-13 3,-25 5,-38zm69 56c-3,3 -7,4 -13,5 -6,2 -15,4 -15,14 0,7 7,14 13,15 8,1 5,-4 15,-4 10,0 7,5 15,4 6,-1 13,-8 13,-15 0,-10 -9,-12 -15,-14 -6,-1 -10,-2 -13,-5z"/>
  </g>
</svg>