<svg
  width="48"
  height="52"
  viewBox="0 0 48 52"
  fill="none"
  xmlns="http://www.w3.org/2000/svg"
>
  <g transform="translate(0, 0) scale(0.2,0.2)">
    <title>ear - detached</title>
    <path fill="#57A7B3" fill-rule="nonzero" d="M28 91c3,0 5,2 7,4 2,2 3,5 3,8 0,3 -1,6 -3,8l0 0c-2,2 -5,4 -8,4 -4,0 -7,-2 -9,-4 -2,-2 -3,-5 -3,-8 0,-3 1,-6 3,-8 2,-2 5,-4 7,-4l0 -25c-1,0 -2,-1 -2,-3 0,-2 2,-3 4,-3 1,0 3,1 3,3 0,2 -1,3 -2,3l0 25zm3 8c-1,-1 -3,-2 -4,-2 -2,0 -3,1 -5,2 -1,1 -1,2 -1,4 0,1 0,3 1,4 2,1 3,2 5,2 1,0 3,-1 4,-2l0 0c1,-1 1,-3 1,-4 0,-2 0,-3 -1,-4z"/>
      <path fill="#57A7B3" fill-rule="nonzero" d="M135 91c2,0 5,2 7,4 2,2 3,5 3,8 0,3 -1,6 -3,8l0 0c-2,2 -5,4 -9,4 -3,0 -6,-2 -8,-4 -2,-2 -3,-5 -3,-8 0,-3 1,-6 3,-8 2,-2 4,-4 7,-4l0 -25c-1,0 -2,-1 -2,-3 0,-2 2,-3 3,-3 2,0 4,1 4,3 0,2 -1,3 -2,3l0 25zm3 8c-2,-1 -3,-2 -5,-2 -1,0 -3,1 -4,2 -1,1 -1,2 -1,4 0,1 0,3 1,4 1,1 3,2 4,2 2,0 3,-1 5,-2l0 0c1,-1 1,-3 1,-4 0,-2 0,-3 -1,-4z"/>
  </g>
</svg>