<svg
  width="50"
  height="50"
  viewBox="0 0 100 100"
  fill="none"
  xmlns="http://www.w3.org/2000/svg"
>
  <g transform="translate(60,45)">
    <title>eyes - smiling</title>
    <path fill="#000000" fill-opacity="0.7" d="M31 100c-1,0 0,2 1,1 2,-2 5,-3 11,-4 7,1 9,2 11,4 2,1 3,-1 2,-1 -1,-1 -5,-7 -13,-7 -7,0 -12,6 -12,7z"/>
    <path fill="#000000" fill-opacity="0.7" d="M102 100c0,0 1,2 2,1 2,-2 5,-3 11,-4 7,1 9,2 11,4 2,1 3,-1 2,-1 -1,-1 -5,-7 -13,-7 -7,0 -12,6 -13,7z"/>
    />
  </g>
</svg>