<svg
  width="270"
  height="270"
  viewBox="0 0 270 270"
  fill="none"
  preserveAspectRatio="xMidYMid meet"
  xmlns="http://www.w3.org/2000/svg"
>
  <g transform="translate(-45, 0)">
   <path fill="#000000" fill-opacity="0.2" d="M249 115l0 -7c0,-38 -31,-69 -69,-69l0 0c-38,0 -69,31 -69,69l0 7 5 -6c32,-3 60,-23 80,-46 12,24 28,44 53,52z"/>
   <path class="tinted" fill="#bb7748" d="M273 120l0 -11c0,-51 -42,-92 -93,-92l0 0c-50,0 -92,41 -92,92 0,74 0,148 0,222 16,-2 28,-16 28,-33 0,-59 0,-129 0,-189 31,-8 58,-25 81,-53 18,40 42,63 76,64z"/>
  </g>
</svg>