<svg
  width="270"
  height="270"
  viewBox="0 0 270 270"
  fill="none"
  xmlns="http://www.w3.org/2000/svg"
>
  <g transform="translate(35, 0) scale(0.8, 0.8)">
    <title>tops - clean</title>
    <path fill="#000000" fill-opacity="0.2" d="M199 150l0 -2c0,-38 -31,-69 -69,-69l0 0c-38,0 -69,31 -69,69l0 1c10,-3 21,-3 34,-3l3 0 2 -11 2 11 3 0c8,0 16,0 24,0 8,0 16,0 24,0 7,0 14,0 21,0 8,0 17,1 25,4z"/>
    <path class="tinted" fill="#bb7748" d="M129 59c-64,0 -74,23 -94,83 -4,12 -8,23 -12,33l0 0 0 0 0 0 0 0 0 0 0 0 0 0 0 0 0 0 0 0 0 0 0 0 0 0 0 0 0 0c19,-29 38,-33 72,-33l5 -24 5 24c7,0 15,1 24,1 55,0 81,-6 105,32l0 0 0 0 0 0 0 0 0 0 0 0 0 0 0 0 0 0 0 0 0 0 0 0 0 0 0 0 0 0c-3,-10 -7,-21 -11,-33 -21,-60 -30,-83 -94,-83z"/>
  </g>
</svg>