<svg
  width="270"
  height="270"
  viewBox="0 0 270 270"
  fill="none"
  xmlns="http://www.w3.org/2000/svg"
>
  <g transform="translate(-36, -4)">
    <title>tops - fonze</title>
    <path fill="#000000" fill-opacity="0.2" d="M220 83c-6,-4 -15,-7 -22,-9 -7,-2 -16,-4 -22,-9 -8,5 -16,8 -25,11 -20,6 -26,10 -32,26 1,-4 2,-7 3,-10 1,-4 4,-7 7,-11 6,-4 13,-7 21,-9 8,-3 17,-5 26,-11 6,4 14,7 23,9 8,3 17,5 23,9 5,4 9,8 13,13 2,3 4,7 5,10 -5,-7 -11,-13 -20,-19z"/>
    <path class="tinted" fill="#bb7748" fill-rule="nonzero" d="M138 325c1,4 0,8 -4,9 -4,2 -8,0 -9,-3 -4,-9 -6,-19 -6,-29 -4,8 -7,16 -9,27 -1,4 -4,6 -8,6 -4,-1 -6,-5 -6,-8 1,-2 1,-4 1,-6 -2,6 -5,11 -11,17 -3,3 -8,3 -10,0 -3,-3 -3,-7 0,-10 9,-9 11,-19 10,-29 -1,8 -4,15 -10,22 -2,3 -6,3 -9,1 -3,-3 -4,-7 -2,-10 6,-7 9,-16 9,-26 0,-4 -1,-7 -1,-11 -3,6 -7,12 -12,18 -2,3 -6,3 -9,1 -3,-3 -4,-7 -1,-10 10,-14 14,-25 13,-35 0,0 0,0 0,0 0,0 0,0 0,-1 -1,-6 -4,-11 -7,-16 -2,1 -3,3 -4,4 -2,2 -4,5 -5,6 0,0 1,2 2,3 1,2 2,3 3,5 1,4 -1,8 -5,9 -3,2 -7,0 -9,-4 0,-1 0,-2 -1,-3 -2,-4 -5,-8 -3,-14 2,-4 4,-8 7,-11 2,-2 4,-5 5,-7 1,-5 0,-11 0,-17 -1,-7 -2,-15 0,-23 2,-7 6,-14 10,-21 2,-3 3,-5 5,-7 1,-4 1,-14 0,-24 0,-8 0,-15 1,-19 2,-5 10,-20 17,-33 7,-12 14,-23 16,-24 1,-1 2,-2 4,-2 3,-3 9,-6 12,-9 0,-1 -1,-2 -1,-3 0,-5 0,-10 5,-14 5,-3 9,-3 14,-2 2,0 3,1 4,0 0,0 0,-1 1,-2 2,-4 4,-8 10,-10l0 0c6,0 10,2 14,4 2,1 4,2 5,2 4,0 7,-1 10,-2 5,-1 10,-3 17,-2l0 0c6,1 8,5 11,8 1,2 3,3 3,4 1,0 4,-1 6,-2 6,-2 11,-4 17,-2 7,3 11,8 14,14 2,2 3,4 5,6 4,5 10,9 16,13 3,2 5,4 8,6 0,1 2,2 3,3 6,4 11,8 14,16 3,10 4,22 5,33 0,4 1,8 1,11 1,7 2,12 3,17 2,5 4,9 7,15 1,3 4,7 6,10 2,3 4,5 6,6 4,3 4,7 2,10 -2,3 -7,4 -10,2 0,0 0,-1 0,-1 0,9 6,19 11,29 5,9 11,19 13,29 1,3 -1,7 -5,8 -1,0 -2,0 -2,0 1,5 2,11 3,16 1,4 -2,8 -5,8 -2,1 -4,0 -6,-1 1,4 1,7 2,11 1,5 2,12 4,17 1,4 -2,8 -5,9 -4,1 -8,-2 -9,-5 -2,-8 -3,-13 -4,-19 -2,-9 -3,-18 -7,-27 1,3 2,6 2,10 2,6 3,12 4,18 1,3 -1,7 -5,8 -3,1 -6,-1 -8,-3l1 3c2,8 4,15 5,22 1,4 -2,8 -6,9 -3,0 -7,-2 -8,-6 -1,-7 -3,-14 -4,-22 -2,-7 -4,-14 -5,-21 -2,12 -3,24 0,39 0,3 -2,7 -6,8 -4,1 -7,-2 -8,-6 -2,-11 -2,-20 -2,-29 -2,10 -3,22 -2,34 1,4 -2,7 -6,8 -4,0 -7,-3 -8,-7 -1,-10 -1,-21 1,-30 -3,3 -4,6 -5,10 -3,7 -2,16 1,26 1,3 -2,7 -5,8 -4,1 -8,-1 -9,-5 -3,-12 -4,-23 -1,-33 1,-1 1,-2 1,-3 -4,8 -7,17 -9,28 0,4 -4,6 -8,6 -3,-1 -6,-5 -5,-8 2,-12 5,-22 9,-30 -2,2 -3,3 -5,5 -2,3 -7,3 -10,1 -3,-3 -3,-7 -1,-10 2,-1 4,-5 8,-9 13,-15 35,-41 37,-47 2,-8 1,-21 -1,-33 0,-7 -1,-14 -1,-20 0,-9 1,-18 1,-27 2,-16 3,-31 0,-45 -1,-5 -3,-9 -5,-13 -4,-5 -8,-9 -13,-13 -6,-4 -15,-6 -23,-9 -9,-2 -17,-5 -23,-9 -9,6 -18,8 -26,11 -8,2 -15,5 -21,9 -3,4 -6,7 -7,11 -2,4 -3,9 -4,15 -1,13 -3,26 -3,39 -1,12 0,25 1,38 1,6 5,13 9,19 3,5 6,10 8,15 2,4 0,0 1,3 4,10 8,20 10,31 1,7 0,14 -1,21 0,8 -1,16 1,22 1,6 5,11 10,16 2,3 5,6 7,9 2,4 1,8 -2,10 -3,2 -7,1 -10,-2 -1,-3 -4,-5 -6,-8 -4,-4 -7,-9 -10,-14 0,7 2,13 5,19z"/>
  </g>
</svg>
