<svg
  width="270"
  height="270"
  viewBox="0 0 270 270"
  fill="none"
  xmlns="http://www.w3.org/2000/svg"
>
  <g transform="translate(-40,0)">
    <title>tops - funny</title>
    <path fill="#000000" fill-opacity="0.2" d="M112 101c8,-7 21,-11 38,-13l1 -7 1 7c6,-1 12,-2 18,-2l2 -11 2 11c12,-1 24,0 34,1l1 -6 1 7c18,2 32,7 39,15l0 5c-6,-9 -28,-15 -39,-17l-1 0 -1 0c-11,-2 -22,-2 -34,-2l-2 0 -2 0c-5,1 -11,1 -17,2l-1 0 -1 0c-11,2 -30,6 -39,13l0 -3z"/>
      <path class="tinted" fill="#bb7748" d="M183 14c50,0 67,23 80,68 4,14 13,31 20,43 5,12 0,17 0,25 8,2 23,10 30,27 4,10 -4,31 -15,38 -3,3 0,24 -6,37 -7,14 -13,13 -23,19 -7,4 23,38 4,63 -12,-22 -36,0 -51,-10 -18,-10 -18,-27 -18,-38 0,-11 10,-46 29,-65 -2,-16 18,-47 17,-60l-1 -58c-7,-8 -21,-13 -39,-15l-1 -7 -1 6c-10,-1 -22,-2 -34,-1l-2 -11 -2 11c-6,0 -12,1 -18,2l-1 -7 -1 7c-17,2 -30,6 -38,13 0,27 -1,64 0,68 2,11 19,33 17,63 -1,16 -26,29 -26,38 0,6 0,19 23,21 -6,7 -23,3 -27,1 0,5 1,5 4,10 -10,-3 -15,-11 -16,-15 -6,7 -2,14 -5,24 -22,-10 -25,-31 -26,-36 -2,-33 11,-36 9,-45 -4,-17 -19,-20 -19,-37 0,-19 23,-41 28,-47 5,-6 -1,-20 0,-30 3,-18 18,-35 19,-35 31,-44 27,-67 90,-67z"/>
  </g>
</svg>
