<svg
  width="270"
  height="270"
  viewBox="0 0 270 270"
  fill="none"
  xmlns="http://www.w3.org/2000/svg"
>
  <g transform="translate(45, 0) scale(0.7, 0.7)">
    <title>tops - pixie</title>
    <path class="tinted" fill="#bb7748" d="M19 145c9,-20 27,-34 42,-33 2,-13 13,-25 29,-32 19,-8 38,-6 50,3 12,-9 31,-11 50,-3 16,7 27,19 29,32 15,-1 33,13 42,33 13,33 -4,80 -44,43 -5,-5 -17,-11 -22,-19 -10,-16 -12,-23 -16,-22 -13,4 -20,3 -39,3 -19,0 -26,1 -39,-3 -4,-1 -6,6 -16,22 -5,8 -17,14 -22,19 -8,7 -14,19 -30,13 -18,-7 -24,-32 -14,-56z"/>
  </g>
</svg>
