<svg viewBox="0 0 270 270"
 width="270"
 height="270">
     <g id="h_longhair" transform="translate(40, 0) scale(0.7, 0.7)">
      <path fill="#000000" fill-opacity="0.2" d="M31 204c2,-11 -13,-62 3,-94 17,-35 36,-48 83,-51 34,-3 68,-2 99,16 13,7 21,22 28,35 5,11 8,24 9,36 0,13 -6,24 -6,43 0,2 0,3 0,5l-2 -1c-8,-3 -17,-7 -25,-12 -10,-6 -20,-13 -29,-20 -11,-9 -25,-21 -34,-33 -5,7 -13,13 -20,17 -6,4 -13,7 -19,9 -8,3 -15,6 -23,9 -8,3 -16,6 -24,10 -12,7 -17,7 -40,31zm126 -85l-1 0c0,0 0,0 0,0l1 0z"/>
      <path class="tinted" fill="#bb7748" d="M31 204c3,-11 -13,-62 3,-94 17,-35 36,-48 83,-51 34,-3 68,-2 99,16 13,7 21,22 28,35 5,11 8,24 9,36 0,13 -6,24 -6,43 -25,-9 -74,-43 -91,-70 -6,17 -31,28 -62,40 -25,8 -46,14 -63,45z"/>
     </g>
    </svg>